<svg width="1280" height="640" viewBox="0 0 1280 640" fill="none" xmlns="http://www.w3.org/2000/svg">
  <defs>
    <linearGradient id="bg" x1="0" y1="0" x2="1280" y2="640" gradientUnits="userSpaceOnUse">
      <stop stop-color="#111827"/>
      <stop offset="0.46" stop-color="#12332F"/>
      <stop offset="1" stop-color="#3B255E"/>
    </linearGradient>
    <linearGradient id="accent" x1="160" y1="146" x2="610" y2="540" gradientUnits="userSpaceOnUse">
      <stop stop-color="#60A5FA"/>
      <stop offset="0.52" stop-color="#34D399"/>
      <stop offset="1" stop-color="#FBBF24"/>
    </linearGradient>
    <linearGradient id="panel" x1="86" y1="70" x2="1198" y2="568" gradientUnits="userSpaceOnUse">
      <stop stop-color="#FFFFFF" stop-opacity="0.17"/>
      <stop offset="1" stop-color="#FFFFFF" stop-opacity="0.06"/>
    </linearGradient>
    <linearGradient id="card" x1="728" y1="152" x2="1138" y2="516" gradientUnits="userSpaceOnUse">
      <stop stop-color="#FFFFFF" stop-opacity="0.16"/>
      <stop offset="1" stop-color="#FFFFFF" stop-opacity="0.08"/>
    </linearGradient>
    <pattern id="grid" width="40" height="40" patternUnits="userSpaceOnUse">
      <path d="M40 0H0V40" stroke="#FFFFFF" stroke-opacity="0.10" stroke-width="1"/>
    </pattern>
    <filter id="softShadow" x="-20%" y="-20%" width="140%" height="140%" color-interpolation-filters="sRGB">
      <feDropShadow dx="0" dy="22" stdDeviation="28" flood-color="#020617" flood-opacity="0.32"/>
    </filter>
    <filter id="smallShadow" x="-20%" y="-20%" width="140%" height="140%" color-interpolation-filters="sRGB">
      <feDropShadow dx="0" dy="10" stdDeviation="14" flood-color="#020617" flood-opacity="0.22"/>
    </filter>
  </defs>

  <rect width="1280" height="640" rx="34" fill="url(#bg)"/>
  <rect width="1280" height="640" rx="34" fill="url(#grid)" opacity="0.34"/>
  <path d="M0 496L1280 360V640H0V496Z" fill="#0F172A" fill-opacity="0.26"/>
  <path d="M822 0H1280V640H1014L746 0H822Z" fill="#FFFFFF" fill-opacity="0.045"/>
  <circle cx="1144" cy="118" r="144" fill="#60A5FA" fill-opacity="0.10"/>
  <circle cx="1150" cy="520" r="116" fill="#34D399" fill-opacity="0.09"/>

  <rect x="72" y="64" width="1136" height="512" rx="30" fill="url(#panel)" stroke="#FFFFFF" stroke-opacity="0.16"/>

  <g transform="translate(136 122)">
    <rect x="0" y="0" width="508" height="42" rx="21" fill="#020617" fill-opacity="0.28" stroke="#FFFFFF" stroke-opacity="0.15"/>
    <circle cx="24" cy="21" r="8" fill="#34D399"/>
    <text x="44" y="28" fill="#D1FAE5" font-family="Segoe UI, Arial, sans-serif" font-size="18" font-weight="700">
      256 skills · 16 categories · upstream sync
    </text>

    <text x="0" y="124" fill="#FFFFFF" font-family="Segoe UI, Arial, sans-serif" font-size="56" font-weight="850">
      Commonly Used
    </text>
    <text x="0" y="194" fill="#FFFFFF" font-family="Segoe UI, Arial, sans-serif" font-size="56" font-weight="850">
      High-Value Skills
    </text>

    <rect x="2" y="222" width="490" height="6" rx="3" fill="url(#accent)"/>

    <text x="0" y="278" fill="#E0F2FE" font-family="Segoe UI, Arial, sans-serif" font-size="25" font-weight="650">
      For Codex, Claude Code, Hermes Agent,
    </text>
    <text x="0" y="316" fill="#E0F2FE" font-family="Segoe UI, Arial, sans-serif" font-size="25" font-weight="650">
      OpenClaw, and automation workflows.
    </text>

    <g transform="translate(0 366)">
      <rect x="0" y="0" width="178" height="54" rx="15" fill="#2563EB"/>
      <text x="26" y="35" fill="#FFFFFF" font-family="Segoe UI, Arial, sans-serif" font-size="21" font-weight="800">
        Reusable
      </text>
      <rect x="196" y="0" width="184" height="54" rx="15" fill="#059669"/>
      <text x="222" y="35" fill="#FFFFFF" font-family="Segoe UI, Arial, sans-serif" font-size="21" font-weight="800">
        Curated
      </text>
      <rect x="398" y="0" width="188" height="54" rx="15" fill="#7C3AED"/>
      <text x="424" y="35" fill="#FFFFFF" font-family="Segoe UI, Arial, sans-serif" font-size="21" font-weight="800">
        Updatable
      </text>
    </g>
  </g>

  <g transform="translate(772 116)" filter="url(#softShadow)">
    <rect x="0" y="0" width="388" height="408" rx="26" fill="#0B1120" fill-opacity="0.60" stroke="#FFFFFF" stroke-opacity="0.15"/>
    <rect x="28" y="28" width="152" height="34" rx="17" fill="#FFFFFF" fill-opacity="0.08" stroke="#FFFFFF" stroke-opacity="0.12"/>
    <circle cx="48" cy="45" r="6" fill="#34D399"/>
    <text x="64" y="51" fill="#E0F2FE" font-family="Segoe UI, Arial, sans-serif" font-size="15" font-weight="800">
      Auto-synced
    </text>
    <rect x="208" y="28" width="152" height="34" rx="17" fill="#34D399" fill-opacity="0.12" stroke="#6EE7B7" stroke-opacity="0.20"/>
    <text x="232" y="51" fill="#D1FAE5" font-family="Segoe UI, Arial, sans-serif" font-size="15" font-weight="800">
      From catalog
    </text>

    <text x="28" y="82" fill="#FFFFFF" font-family="Segoe UI, Arial, sans-serif" font-size="22" font-weight="850">
      Top Skill Areas
    </text>
    <rect x="28" y="94" width="336" height="54" rx="15" fill="#FFFFFF" fill-opacity="0.08" stroke="#FFFFFF" stroke-opacity="0.13"/>
    <circle cx="52" cy="121" r="6" fill="#93C5FD"/>
    <text x="72" y="118" fill="#93C5FD" font-family="Segoe UI, Arial, sans-serif" font-size="20" font-weight="800">
      Developer Engineering
    </text>
    <text x="72" y="138" fill="#CBD5E1" font-family="Segoe UI, Arial, sans-serif" font-size="14" font-weight="700">
      45 skills
    </text>

    <rect x="28" y="164" width="336" height="54" rx="15" fill="#34D399" fill-opacity="0.13" stroke="#6EE7B7" stroke-opacity="0.24"/>
    <circle cx="52" cy="191" r="6" fill="#BBF7D0"/>
    <text x="72" y="188" fill="#BBF7D0" font-family="Segoe UI, Arial, sans-serif" font-size="20" font-weight="800">
      AI Workflow
    </text>
    <text x="72" y="208" fill="#CBD5E1" font-family="Segoe UI, Arial, sans-serif" font-size="14" font-weight="700">
      43 skills
    </text>

    <rect x="28" y="234" width="336" height="54" rx="15" fill="#FFFFFF" fill-opacity="0.08" stroke="#FFFFFF" stroke-opacity="0.13"/>
    <circle cx="52" cy="261" r="6" fill="#FDE68A"/>
    <text x="72" y="258" fill="#FDE68A" font-family="Segoe UI, Arial, sans-serif" font-size="20" font-weight="800">
      Workflow Automation
    </text>
    <text x="72" y="278" fill="#CBD5E1" font-family="Segoe UI, Arial, sans-serif" font-size="14" font-weight="700">
      13 skills
    </text>

    <rect x="28" y="318" width="152" height="62" rx="17" fill="#FFFFFF" fill-opacity="0.09" stroke="#FFFFFF" stroke-opacity="0.13"/>
    <text x="52" y="344" fill="#E5E7EB" font-family="Segoe UI, Arial, sans-serif" font-size="15" font-weight="700">
      Skills
    </text>
    <text x="52" y="370" fill="#FFFFFF" font-family="Segoe UI, Arial, sans-serif" font-size="28" font-weight="850">
      256
    </text>

    <rect x="208" y="318" width="152" height="62" rx="17" fill="#FFFFFF" fill-opacity="0.09" stroke="#FFFFFF" stroke-opacity="0.13"/>
    <text x="232" y="344" fill="#E5E7EB" font-family="Segoe UI, Arial, sans-serif" font-size="15" font-weight="700">
      Categories
    </text>
    <text x="232" y="370" fill="#FFFFFF" font-family="Segoe UI, Arial, sans-serif" font-size="28" font-weight="850">
      16
    </text>

  </g>
</svg>
